HIERARCHY
ROOT Hips
{
	OFFSET -0.001795 -0.223333 0.028219
	CHANNELS 6 Xposition Yposition Zposition Zrotation Yrotation Xrotation 
	JOINT LeftUpLeg
	{
		OFFSET 0.069520 -0.091406 -0.006815
		CHANNELS 3 Zrotation Yrotation Xrotation
		JOINT LeftLeg
		{
			OFFSET 0.034277 -0.375199 -0.004496
			CHANNELS 3 Zrotation Yrotation Xrotation
			JOINT LeftFoot
			{
				OFFSET -0.013596 -0.397961 -0.043693
				CHANNELS 3 Zrotation Yrotation Xrotation
				JOINT LeftToe
				{
					OFFSET 0.026358 -0.055791 0.119288
					CHANNELS 3 Zrotation Yrotation Xrotation
					End Site
					{
						OFFSET 0.000000 0.000000 0.000000
					}
				}
			}
		}
	}
	JOINT RightUpLeg
	{
		OFFSET -0.067670 -0.090522 -0.004320
		CHANNELS 3 Zrotation Yrotation Xrotation
		JOINT RightLeg
		{
			OFFSET -0.038290 -0.382569 -0.008850
			CHANNELS 3 Zrotation Yrotation Xrotation
			JOINT RightFoot
			{
				OFFSET 0.015774 -0.398415 -0.042312
				CHANNELS 3 Zrotation Yrotation Xrotation
				JOINT RightToe
				{
					OFFSET -0.025372 -0.048144 0.123348
					CHANNELS 3 Zrotation Yrotation Xrotation
					End Site
					{
						OFFSET 0.000000 0.000000 0.000000
					}
				}
			}
		}
	}
	JOINT Spine
	{
		OFFSET -0.002533 0.108963 -0.026696
		CHANNELS 3 Zrotation Yrotation Xrotation
		JOINT Spine1
		{
			OFFSET 0.005487 0.135180 0.001092
			CHANNELS 3 Zrotation Yrotation Xrotation
			JOINT Spine2
			{
				OFFSET 0.001457 0.052922 0.025425
				CHANNELS 3 Zrotation Yrotation Xrotation
				JOINT Neck
				{
					OFFSET -0.002778 0.213870 -0.042857
					CHANNELS 3 Zrotation Yrotation Xrotation
					JOINT Head
					{
						OFFSET 0.005152 0.064970 0.051349
						CHANNELS 3 Zrotation Yrotation Xrotation
						End Site
						{
							OFFSET 0.000000 0.000000 0.000000
						}
					}
				}
				JOINT LeftShoulder
				{
					OFFSET 0.078845 0.121749 -0.034090
					CHANNELS 3 Zrotation Yrotation Xrotation
					JOINT LeftArm
					{
						OFFSET 0.090977 0.030469 -0.008868
						CHANNELS 3 Zrotation Yrotation Xrotation
						JOINT LeftForeArm
						{
							OFFSET 0.259612 -0.012772 -0.027456
							CHANNELS 3 Zrotation Yrotation Xrotation
							JOINT LeftHand
							{
								OFFSET 0.249234 0.008986 -0.001171
								CHANNELS 3 Zrotation Yrotation Xrotation
								End Site
								{
									OFFSET 0.000000 0.000000 0.000000
								}
							}
						}
					}
				}
				JOINT RightShoulder
				{
					OFFSET -0.081759 0.118833 -0.038615
					CHANNELS 3 Zrotation Yrotation Xrotation
					JOINT RightArm
					{
						OFFSET -0.096012 0.032551 -0.009143
						CHANNELS 3 Zrotation Yrotation Xrotation
						JOINT RightForeArm
						{
							OFFSET -0.253742 -0.013329 -0.021401
							CHANNELS 3 Zrotation Yrotation Xrotation
							JOINT RightHand
							{
								OFFSET -0.255298 0.007772 -0.005559
								CHANNELS 3 Zrotation Yrotation Xrotation
								End Site
								{
									OFFSET 0.000000 0.000000 0.000000
								}
							}
						}
					}
				}
			}
		}
	}
}
MOTION
Frames: 10
Frame Time: 0.050000
0.000000 0.954369 0.000000 -0.827548 -5.044482 0.564955 0.910502 0.205160 2.381610 -1.373690 0.192759 -1.366693 1.470429 5.576022 8.324602 0.000000 0.000000 0.000000 -1.596731 -0.142956 2.443921 1.574230 -0.160368 -0.416534 -1.545239 -6.828920 6.889586 0.000000 0.000000 0.000000 5.272380 -0.526553 5.617133 -5.812533 1.920474 -24.723721 -0.518424 7.643997 30.390241 9.884772 -2.953641 -29.417336 0.000000 0.000000 0.000000 -17.448662 -6.991487 1.838785 -55.248246 -4.160229 -7.316343 -14.334827 -28.974340 5.054802 0.000000 0.000000 0.000000 26.659187 -4.678574 -2.998673 59.092591 4.432860 -6.731558 12.067490 26.386682 4.327208 0.000000 0.000000 0.000000 
0.000408 0.953111 0.002052 -0.892138 -4.305918 1.120187 1.133833 0.205143 2.502349 -1.680889 0.239770 -2.219516 1.130323 4.816889 7.549914 0.000000 0.000000 0.000000 -1.555814 -0.129992 2.223278 1.525374 -0.159532 -0.473461 -2.247265 -7.794557 5.592122 0.000000 0.000000 0.000000 5.420821 -0.490153 4.949585 -6.813371 2.178214 -24.419978 -0.274020 6.896545 30.677020 9.825990 -2.792191 -30.628368 0.000000 0.000000 0.000000 -16.851810 -6.244251 1.555281 -55.158716 -4.487187 -7.211067 -14.624919 -28.994229 5.155649 0.000000 0.000000 0.000000 26.692398 -4.931221 -3.265886 59.526874 4.290591 -6.826882 12.486773 27.209663 4.589477 0.000000 0.000000 0.000000 
0.000740 0.952605 0.003770 -0.448392 -3.990448 1.106714 0.947366 0.170602 2.058444 -1.921094 0.242607 -1.019039 0.968850 4.264520 6.585073 0.000000 0.000000 0.000000 -1.818252 -0.120233 2.265211 1.308559 -0.143785 -0.587512 -2.582528 -8.465715 5.511595 0.000000 0.000000 0.000000 5.156013 -0.470210 4.872734 -7.133775 2.245801 -24.878380 0.245797 6.850586 31.338758 8.962566 -2.443838 -29.856058 0.000000 0.000000 0.000000 -17.035078 -6.611933 1.729222 -54.219049 -4.416908 -7.210262 -15.338925 -27.998266 5.130717 0.000000 0.000000 0.000000 26.580554 -4.807958 -3.091250 58.971426 4.677189 -6.703306 11.814458 27.173719 4.431289 0.000000 0.000000 0.000000 
0.000842 0.951518 0.005764 -0.321109 -3.510905 1.074468 0.813529 0.173446 2.068334 -1.707526 0.210966 -0.654333 0.737732 3.675017 5.964720 0.000000 0.000000 0.000000 -2.149020 -0.135267 2.656065 2.033002 -0.212248 -0.609751 -3.232790 -9.776674 5.357289 0.000000 0.000000 0.000000 5.057209 -0.499873 5.285833 -7.451762 2.300569 -25.551418 0.284678 6.996053 32.116543 9.588932 -2.562426 -31.091106 0.000000 0.000000 0.000000 -17.195843 -6.963441 1.816801 -53.618123 -3.633683 -7.542223 -15.946180 -28.656657 5.391861 0.000000 0.000000 0.000000 27.294999 -5.300216 -3.243769 58.580866 4.630667 -6.877754 13.559054 28.398937 5.198291 0.000000 0.000000 0.000000 
0.000737 0.950667 0.007850 -0.168232 -3.254655 1.014279 0.456008 0.147615 1.685639 -1.127986 0.127156 0.166361 0.878116 3.626003 4.937885 0.000000 0.000000 0.000000 -2.297620 -0.137774 2.774700 1.950673 -0.201959 -0.439788 -3.450304 -10.084741 4.839483 0.000000 0.000000 0.000000 4.732165 -0.520083 5.777961 -7.150586 2.254293 -25.053072 0.039938 7.014101 31.340735 9.469606 -2.463012 -30.970913 0.000000 0.000000 0.000000 -17.107324 -6.685193 1.602295 -53.240028 -3.007068 -7.671723 -16.377016 -29.368259 5.615516 0.000000 0.000000 0.000000 27.028077 -5.249749 -3.164261 57.828324 4.438142 -6.836151 14.339129 29.696291 5.674180 0.000000 0.000000 0.000000 
0.000576 0.949815 0.010477 -0.307300 -3.000873 1.114190 0.510570 0.105602 1.241411 -1.077853 0.099167 1.102024 0.992549 3.517480 3.896939 0.000000 0.000000 0.000000 -2.061843 -0.142904 2.645580 1.710678 -0.167797 0.059834 -3.624050 -10.242118 4.072649 0.000000 0.000000 0.000000 4.580710 -0.541609 6.133884 -7.077270 2.220687 -25.523351 0.016380 7.292591 31.649235 9.906714 -2.459524 -32.143996 0.000000 0.000000 0.000000 -16.923943 -6.412933 1.372130 -53.021286 -2.271177 -7.984549 -17.069334 -30.014043 5.906383 0.000000 0.000000 0.000000 26.852562 -5.083794 -2.867576 56.987455 4.553208 -6.797662 16.088263 31.704078 6.682048 0.000000 0.000000 0.000000 
0.000430 0.949304 0.014519 -0.469126 -2.984596 1.203782 0.425941 0.034454 0.434862 -0.925936 0.049813 2.385580 1.237683 3.861612 3.480057 0.000000 0.000000 0.000000 -1.682663 -0.163477 2.637305 1.453097 -0.134326 0.349208 -3.436239 -9.614140 3.326666 0.000000 0.000000 0.000000 4.602098 -0.565333 6.398286 -7.077695 2.236828 -25.074922 -0.219319 7.441665 31.301924 10.082243 -2.477390 -32.394323 0.000000 0.000000 0.000000 -16.742586 -5.381027 0.805019 -52.687398 -1.615213 -8.181460 -18.078111 -32.137365 6.639341 0.000000 0.000000 0.000000 26.395730 -5.071426 -2.784228 56.556083 4.390056 -6.805193 18.720538 34.296301 8.205842 0.000000 0.000000 0.000000 
0.000694 0.948590 0.020723 -0.555737 -2.655491 1.140934 0.447736 -0.047931 -0.484230 -1.326374 0.064001 4.404138 1.596786 4.136673 2.108625 0.000000 0.000000 0.000000 -1.267690 -0.204622 2.824005 0.921906 -0.052810 1.208740 -3.552066 -9.450373 1.903751 0.000000 0.000000 0.000000 4.361532 -0.583014 6.834389 -6.975614 2.217047 -25.080896 -0.136336 7.388372 31.605147 10.392875 -2.539186 -32.950924 0.000000 0.000000 0.000000 -16.173065 -4.551523 0.397097 -52.707506 -0.847515 -8.554668 -21.142878 -36.028845 8.544068 0.000000 0.000000 0.000000 25.658416 -4.956050 -2.600428 55.707146 4.223072 -6.832760 23.696281 38.678399 11.369835 0.000000 0.000000 0.000000 
0.001735 0.947846 0.029244 -0.713061 -3.134728 0.964267 0.053164 -0.079373 -0.850300 -1.235670 0.023412 6.018459 2.228800 5.112510 1.134767 0.000000 0.000000 0.000000 -1.251603 -0.268319 3.587887 0.777688 -0.034344 1.256308 -3.328347 -8.704673 1.231145 0.000000 0.000000 0.000000 4.130082 -0.591101 7.215891 -6.851975 2.198808 -24.611632 0.035603 7.764562 31.610658 10.318467 -2.417463 -33.399448 0.000000 0.000000 0.000000 -15.759997 -3.250661 -0.240363 -52.161817 0.627238 -9.090926 -27.293037 -41.410261 12.377744 0.000000 0.000000 0.000000 24.508417 -5.161551 -2.649060 54.820087 3.915773 -6.866908 31.152639 43.020113 16.162106 0.000000 0.000000 0.000000 
0.004051 0.946092 0.039950 -0.726310 -3.057245 1.046894 -0.162301 -0.135785 -1.456094 -1.526755 0.036430 8.436859 2.774955 5.886081 -0.082123 0.000000 0.000000 0.000000 -1.492279 -0.249908 3.546491 0.564258 0.044362 2.754911 -3.303324 -8.081558 -0.407871 0.000000 0.000000 0.000000 4.205677 -0.630236 7.646229 -6.871367 2.186812 -25.041426 -0.162749 7.353877 32.296413 10.606063 -2.558614 -34.001793 0.000000 0.000000 0.000000 -14.837837 -2.319335 -0.511021 -52.335791 2.242699 -9.895060 -36.641786 -48.710602 19.540984 0.000000 0.000000 0.000000 23.710978 -5.215981 -2.740770 53.610643 4.220106 -6.660207 42.419870 48.568872 24.471056 0.000000 0.000000 0.000000 
